<svg width="19" height="19" viewBox="0 0 19 19" fill="none" xmlns="http://www.w3.org/2000/svg">
<g clip-path="url(#clip0)">
<path d="M9.5 3.83713C5.86985 3.83713 2.57784 5.82322 0.148665 9.04916C-0.0495551 9.31345 -0.0495551 9.68268 0.148665 9.94698C2.57784 13.1768 5.86985 15.1629 9.5 15.1629C13.1302 15.1629 16.4222 13.1768 18.8513 9.95086C19.0496 9.68657 19.0496 9.31734 18.8513 9.05304C16.4222 5.82322 13.1302 3.83713 9.5 3.83713ZM9.76041 13.4877C7.35067 13.6393 5.36069 11.6532 5.51227 9.2396C5.63665 7.24963 7.24962 5.63666 9.23959 5.51228C11.6493 5.3607 13.6393 7.34679 13.4877 9.76042C13.3595 11.7465 11.7465 13.3595 9.76041 13.4877ZM9.63992 11.6455C8.34177 11.7271 7.26905 10.6582 7.35456 9.36009C7.42063 8.28737 8.29124 7.42064 9.36397 7.35068C10.6621 7.26906 11.7348 8.3379 11.6493 9.63604C11.5794 10.7127 10.7088 11.5794 9.63992 11.6455Z" fill="#FF2A13"/>
</g>
<defs>
<clipPath id="clip0">
<rect width="19" height="19" fill="white"/>
</clipPath>
</defs>
</svg>
