<svg width="17" height="17" viewBox="0 0 17 17" fill="none" xmlns="http://www.w3.org/2000/svg">
<path d="M12.3085 0H4.69129C2.10451 0 0 2.10461 0 4.69139V12.3086C0 14.8955 2.10451 17 4.69129 17H12.3085C14.8955 17 17 14.8954 17 12.3086V4.69139C17.0001 2.10461 14.8955 0 12.3085 0ZM15.4918 12.3086C15.4918 14.0638 14.0638 15.4917 12.3086 15.4917H4.69129C2.9362 15.4918 1.50832 14.0638 1.50832 12.3086V4.69139C1.50832 2.9363 2.9362 1.50832 4.69129 1.50832H12.3085C14.0637 1.50832 15.4917 2.9363 15.4917 4.69139V12.3086H15.4918Z" fill="#737373"/>
<path d="M8.50156 4.11973C6.08614 4.11973 4.12109 6.08477 4.12109 8.5002C4.12109 10.9155 6.08614 12.8805 8.50156 12.8805C10.917 12.8805 12.882 10.9155 12.882 8.5002C12.882 6.08477 10.917 4.11973 8.50156 4.11973ZM8.50156 11.372C6.91793 11.372 5.62942 10.0837 5.62942 8.5001C5.62942 6.91636 6.91783 5.62795 8.50156 5.62795C10.0853 5.62795 11.3737 6.91636 11.3737 8.5001C11.3737 10.0837 10.0852 11.372 8.50156 11.372Z" fill="#737373"/>
<path d="M13.0631 2.84077C12.7725 2.84077 12.4871 2.95842 12.2818 3.16456C12.0756 3.36969 11.957 3.65527 11.957 3.94688C11.957 4.23758 12.0757 4.52306 12.2818 4.72919C12.487 4.93433 12.7725 5.05298 13.0631 5.05298C13.3547 5.05298 13.6393 4.93433 13.8454 4.72919C14.0516 4.52306 14.1692 4.23748 14.1692 3.94688C14.1692 3.65527 14.0516 3.36969 13.8454 3.16456C13.6403 2.95842 13.3547 2.84077 13.0631 2.84077Z" fill="#737373"/>
</svg>
