<svg width="18" height="18" viewBox="0 0 18 18" fill="none" xmlns="http://www.w3.org/2000/svg">
<path d="M13.0325 0H4.96721C2.22829 0 0 2.2284 0 4.96732V13.0326C0 15.7716 2.22829 17.9999 4.96721 17.9999H13.0325C15.7716 17.9999 17.9999 15.7715 17.9999 13.0326V4.96732C18 2.2284 15.7716 0 13.0325 0ZM16.403 13.0326C16.403 14.891 14.891 16.4029 13.0326 16.4029H4.96721C3.1089 16.403 1.59704 14.891 1.59704 13.0326V4.96732C1.59704 3.10901 3.1089 1.59704 4.96721 1.59704H13.0325C14.8909 1.59704 16.4029 3.10901 16.4029 4.96732V13.0326H16.403Z" fill="#4C505F"/>
<path d="M8.99993 4.36203C6.44244 4.36203 4.36182 6.44265 4.36182 9.00015C4.36182 11.5575 6.44244 13.6381 8.99993 13.6381C11.5574 13.6381 13.6381 11.5575 13.6381 9.00015C13.6381 6.44265 11.5574 4.36203 8.99993 4.36203ZM8.99993 12.0409C7.32315 12.0409 5.95885 10.6768 5.95885 9.00004C5.95885 7.32315 7.32304 5.95896 8.99993 5.95896C10.6768 5.95896 12.041 7.32315 12.041 9.00004C12.041 10.6768 10.6767 12.0409 8.99993 12.0409Z" fill="#4C505F"/>
<path d="M13.8327 3.00784C13.525 3.00784 13.2227 3.13241 13.0054 3.35067C12.787 3.56787 12.6615 3.87024 12.6615 4.179C12.6615 4.48681 12.7871 4.78907 13.0054 5.00733C13.2226 5.22453 13.525 5.35017 13.8327 5.35017C14.1414 5.35017 14.4427 5.22453 14.661 5.00733C14.8792 4.78907 15.0038 4.4867 15.0038 4.179C15.0038 3.87024 14.8792 3.56787 14.661 3.35067C14.4438 3.13241 14.1414 3.00784 13.8327 3.00784Z" fill="#4C505F"/>
</svg>
