<svg width="12" height="12" viewBox="0 0 12 12" fill="none" xmlns="http://www.w3.org/2000/svg">
<path d="M8.68831 0H3.31148C1.48553 0 0 1.4856 0 3.31155V8.68838C0 10.5144 1.48553 11.9999 3.31148 11.9999H8.68831C10.5144 11.9999 11.9999 10.5143 11.9999 8.68838V3.31155C12 1.4856 10.5144 0 8.68831 0ZM10.9353 8.68838C10.9353 9.92733 9.92733 10.9352 8.68838 10.9352H3.31148C2.0726 10.9353 1.06469 9.92733 1.06469 8.68838V3.31155C1.06469 2.07267 2.0726 1.06469 3.31148 1.06469H8.68831C9.92726 1.06469 10.9352 2.07267 10.9352 3.31155V8.68838H10.9353Z" fill="#4C505F"/>
<path d="M5.99992 2.90802C4.29492 2.90802 2.90784 4.2951 2.90784 6.0001C2.90784 7.70502 4.29492 9.09203 5.99992 9.09203C7.70491 9.09203 9.09199 7.70502 9.09199 6.0001C9.09199 4.2951 7.70491 2.90802 5.99992 2.90802ZM5.99992 8.02727C4.88206 8.02727 3.97253 7.11788 3.97253 6.00003C3.97253 4.8821 4.88199 3.97264 5.99992 3.97264C7.11784 3.97264 8.0273 4.8821 8.0273 6.00003C8.0273 7.11788 7.11777 8.02727 5.99992 8.02727Z" fill="#4C505F"/>
<path d="M9.22175 2.00525C9.01662 2.00525 8.81511 2.0883 8.67024 2.2338C8.52466 2.3786 8.44098 2.58018 8.44098 2.78602C8.44098 2.99122 8.52473 3.19274 8.67024 3.33824C8.81504 3.48304 9.01662 3.5668 9.22175 3.5668C9.42759 3.5668 9.62846 3.48304 9.77397 3.33824C9.91947 3.19274 10.0025 2.99115 10.0025 2.78602C10.0025 2.58018 9.91947 2.3786 9.77397 2.2338C9.62917 2.0883 9.42759 2.00525 9.22175 2.00525Z" fill="#4C505F"/>
</svg>
