<svg width="17" height="17" viewBox="0 0 17 17" fill="none" xmlns="http://www.w3.org/2000/svg">
<g clip-path="url(#clip0)">
<path d="M17 3.23624C16.3312 3.52391 15.6623 3.70356 14.9938 3.77572C15.7488 3.32269 16.2596 2.68267 16.5257 1.85571C15.835 2.26552 15.098 2.5459 14.3142 2.69699C13.6238 1.9635 12.7754 1.5966 11.7684 1.5966C10.8049 1.5966 9.98337 1.93633 9.30353 2.61595C8.62407 3.29552 8.2843 4.11704 8.2843 5.08062C8.2843 5.33946 8.31302 5.60563 8.3706 5.87887C6.94669 5.80697 5.61096 5.44922 4.36319 4.80561C3.1155 4.16193 2.0566 3.30436 1.18649 2.23292C0.870069 2.77214 0.711803 3.35832 0.711803 3.99112C0.711803 4.58799 0.85201 5.14179 1.13261 5.65237C1.41303 6.16287 1.79065 6.57631 2.2653 6.89277C1.70428 6.87116 1.17935 6.7237 0.690419 6.45043V6.49357C0.690419 7.335 0.9547 8.07374 1.48319 8.71036C2.01175 9.3469 2.67878 9.74758 3.48413 9.91306C3.18207 9.99206 2.87638 10.0316 2.56721 10.0316C2.36584 10.0316 2.14648 10.0137 1.90921 9.97797C2.13212 10.6754 2.54205 11.2487 3.13885 11.6983C3.73576 12.1478 4.41174 12.3795 5.16684 12.3942C3.90124 13.3864 2.45942 13.8825 0.841393 13.8825C0.532114 13.8825 0.251738 13.8684 0 13.8395C1.61807 14.8821 3.40147 15.4034 5.35031 15.4034C6.5872 15.4034 7.7486 15.2077 8.83414 14.8157C9.9202 14.4239 10.8478 13.8988 11.6173 13.2407C12.3866 12.5827 13.0502 11.8259 13.6074 10.9701C14.1647 10.1144 14.5798 9.22094 14.8533 8.2897C15.1265 7.35828 15.2632 6.42541 15.2632 5.4904C15.2632 5.28902 15.2596 5.13809 15.2523 5.03736C15.9357 4.5414 16.5182 3.94083 17 3.23624Z" fill="#00B0E8"/>
</g>
<defs>
<clipPath id="clip0">
<rect width="17" height="17" fill="white"/>
</clipPath>
</defs>
</svg>
