<svg width="15" height="15" viewBox="0 0 15 15" fill="none" xmlns="http://www.w3.org/2000/svg">
<path d="M14.2168 0.226562H9.54102C9.47978 0.226562 9.42969 0.27666 9.42969 0.337891V1.37695C9.42969 1.43818 9.47978 1.48828 9.54102 1.48828H12.5172L8.81924 5.18623C7.8915 4.47187 6.75967 4.08594 5.57031 4.08594C4.14346 4.08594 2.8001 4.64258 1.79258 5.65195C0.785058 6.66133 0.226562 8.00283 0.226562 9.42969C0.226562 10.8565 0.783203 12.1999 1.79258 13.2074C2.8001 14.2168 4.14346 14.7734 5.57031 14.7734C6.99717 14.7734 8.34053 14.2168 9.34805 13.2074C10.3574 12.1999 10.9141 10.8565 10.9141 9.42969C10.9141 8.24033 10.5281 7.11221 9.81563 6.18447L13.5117 2.48838V5.45898C13.5117 5.52022 13.5618 5.57031 13.623 5.57031H14.6621C14.7233 5.57031 14.7734 5.52022 14.7734 5.45898V0.783203C14.7734 0.477051 14.5229 0.226562 14.2168 0.226562ZM5.57031 13.3633C3.40127 13.3633 1.63672 11.5987 1.63672 9.42969C1.63672 7.26064 3.40127 5.49609 5.57031 5.49609C7.73936 5.49609 9.50391 7.26064 9.50391 9.42969C9.50391 11.5987 7.73936 13.3633 5.57031 13.3633Z" fill="#4C505F"/>
</svg>
