<svg width="11" height="17" viewBox="0 0 11 17" fill="none" xmlns="http://www.w3.org/2000/svg">
<path d="M5.49977 0C2.4842 0 0.0390625 2.44514 0.0390625 5.46071C0.0390625 8.12052 1.94179 10.3366 4.45984 10.8225V12.5803H2.11788V14.6591H4.45982V17H6.53864V14.6591H8.88058V12.5803H6.53865V10.8225C9.0572 10.337 10.9605 8.12087 10.9605 5.4607C10.9605 2.44514 8.51534 0 5.49977 0ZM5.49977 2.17144C7.31637 2.17144 8.78904 3.64411 8.78904 5.46071C8.78904 7.27732 7.31639 8.75 5.49977 8.75C3.68315 8.75 2.2105 7.27732 2.2105 5.46071C2.2105 3.64411 3.68316 2.17144 5.49977 2.17144Z" fill="#4C505F"/>
</svg>
