<svg width="14" height="14" viewBox="0 0 14 14" fill="none" xmlns="http://www.w3.org/2000/svg">
<path d="M13.3655 10.855L10.3167 8.083C10.1726 7.95201 9.98322 7.88216 9.78857 7.88817C9.59391 7.89419 9.40921 7.97561 9.27346 8.11525L7.47871 9.961C7.04671 9.8785 6.17821 9.60775 5.28421 8.716C4.39021 7.82125 4.11946 6.9505 4.03921 6.5215L5.88346 4.726C6.02327 4.59035 6.10481 4.40562 6.11083 4.21091C6.11685 4.01619 6.04688 3.82678 5.91571 3.68275L3.14446 0.63475C3.01324 0.490267 2.83087 0.402628 2.63608 0.390445C2.44128 0.378261 2.24941 0.442494 2.10121 0.5695L0.473712 1.96525C0.344045 2.09539 0.266651 2.26859 0.256211 2.452C0.244961 2.6395 0.0304615 7.081 3.47446 10.5265C6.47896 13.5303 10.2425 13.75 11.279 13.75C11.4305 13.75 11.5235 13.7455 11.5482 13.744C11.7316 13.7337 11.9047 13.656 12.0342 13.5257L13.4292 11.8975C13.5567 11.7498 13.6214 11.5581 13.6095 11.3633C13.5976 11.1685 13.51 10.9861 13.3655 10.855Z" fill="#4C505F"/>
</svg>
