<svg width="16" height="18" viewBox="0 0 16 18" fill="none" xmlns="http://www.w3.org/2000/svg">
<path d="M15.3822 0.594997C15.2274 0.372774 15.0191 0.210264 14.7576 0.107174C14.591 0.0358773 14.4165 0.000166677 14.234 0.000166677V0H1.76595C1.58356 0 1.40918 0.0357107 1.24258 0.107007C0.9809 0.210014 0.772636 0.372732 0.618001 0.59483C0.463408 0.816928 0.385986 1.06269 0.385986 1.33242V16.6675C0.385986 16.9373 0.463408 17.183 0.618001 17.4053C0.772636 17.6274 0.9809 17.7901 1.24258 17.893C1.40901 17.9643 1.58356 18 1.76595 18C2.13885 18 2.46783 17.869 2.75343 17.6075L8.00002 12.5629L13.2466 17.6076C13.5243 17.861 13.8534 17.988 14.234 17.988C14.4323 17.988 14.6068 17.9565 14.7575 17.893C15.0191 17.79 15.2274 17.6274 15.3821 17.405C15.5367 17.183 15.614 16.9373 15.614 16.6675V1.33259C15.614 1.06286 15.5366 0.817095 15.3822 0.594997ZM14.0912 16.2985L9.05888 11.4684L8.00002 10.4573L6.94124 11.4684L1.90892 16.2985V1.52297H14.0912V16.2985Z" fill="#4C505F"/>
</svg>
