<svg width="15" height="11" viewBox="0 0 15 11" fill="none" xmlns="http://www.w3.org/2000/svg">
<path d="M13.5938 0.34375H1.40625C1.14697 0.34375 0.9375 0.553223 0.9375 0.8125V10.1875C0.9375 10.4468 1.14697 10.6562 1.40625 10.6562H13.5938C13.853 10.6562 14.0625 10.4468 14.0625 10.1875V0.8125C14.0625 0.553223 13.853 0.34375 13.5938 0.34375ZM12.4102 1.93896L7.78857 5.53516C7.67432 5.62451 7.51465 5.62451 7.40039 5.53516L2.77734 1.93896C2.75992 1.92552 2.74713 1.90695 2.74079 1.88587C2.73444 1.86479 2.73485 1.84226 2.74196 1.82142C2.74906 1.80059 2.76251 1.7825 2.78042 1.76969C2.79832 1.75688 2.81978 1.75 2.8418 1.75H12.3457C12.3677 1.75 12.3892 1.75688 12.4071 1.76969C12.425 1.7825 12.4384 1.80059 12.4455 1.82142C12.4526 1.84226 12.4531 1.86479 12.4467 1.88587C12.4404 1.90695 12.4276 1.92552 12.4102 1.93896Z" fill="#4C505F"/>
</svg>
