<svg width="12" height="10" viewBox="0 0 12 10" fill="none" xmlns="http://www.w3.org/2000/svg">
<path d="M1.8 4.375C2.46188 4.375 3 3.81445 3 3.125C3 2.43555 2.46188 1.875 1.8 1.875C1.13813 1.875 0.6 2.43555 0.6 3.125C0.6 3.81445 1.13813 4.375 1.8 4.375ZM10.2 4.375C10.8619 4.375 11.4 3.81445 11.4 3.125C11.4 2.43555 10.8619 1.875 10.2 1.875C9.53813 1.875 9 2.43555 9 3.125C9 3.81445 9.53813 4.375 10.2 4.375ZM10.8 5H9.6C9.27 5 8.97188 5.13867 8.75438 5.36328C9.51 5.79492 10.0463 6.57422 10.1625 7.5H11.4C11.7319 7.5 12 7.2207 12 6.875V6.25C12 5.56055 11.4619 5 10.8 5ZM6 5C7.16063 5 8.1 4.02148 8.1 2.8125C8.1 1.60352 7.16063 0.625 6 0.625C4.83938 0.625 3.9 1.60352 3.9 2.8125C3.9 4.02148 4.83938 5 6 5ZM7.44 5.625H7.28438C6.89438 5.82031 6.46125 5.9375 6 5.9375C5.53875 5.9375 5.1075 5.82031 4.71563 5.625H4.56C3.3675 5.625 2.4 6.63281 2.4 7.875V8.4375C2.4 8.95508 2.80313 9.375 3.3 9.375H8.7C9.19688 9.375 9.6 8.95508 9.6 8.4375V7.875C9.6 6.63281 8.6325 5.625 7.44 5.625ZM3.24563 5.36328C3.02813 5.13867 2.73 5 2.4 5H1.2C0.538125 5 0 5.56055 0 6.25V6.875C0 7.2207 0.268125 7.5 0.6 7.5H1.83563C1.95375 6.57422 2.49 5.79492 3.24563 5.36328Z" fill="#FF2A13"/>
</svg>
