<svg width="8" height="12" viewBox="0 0 8 12" fill="none" xmlns="http://www.w3.org/2000/svg">
<path d="M4.0011 0C1.87246 0 0.146484 1.72598 0.146484 3.85462C0.146484 5.73213 1.48958 7.29643 3.26703 7.63941V8.8802H1.61388V10.3476H3.26702V12H4.73442V10.3476H6.38756V8.8802H4.73443V7.6394C6.51223 7.29671 7.85572 5.73238 7.85572 3.85461C7.85572 1.72598 6.12974 0 4.0011 0ZM4.0011 1.53278C5.28341 1.53278 6.32294 2.57231 6.32294 3.85462C6.32294 5.13693 5.28342 6.17647 4.0011 6.17647C2.71878 6.17647 1.67926 5.13693 1.67926 3.85462C1.67926 2.57231 2.71879 1.53278 4.0011 1.53278Z" fill="#FF2A13"/>
</svg>
