<svg width="18" height="14" viewBox="0 0 18 14" fill="none" xmlns="http://www.w3.org/2000/svg">
<path d="M15.8636 0.164276H2.13645C0.958418 0.164276 0 1.08468 0 2.21598V11.784C0 12.9153 0.958418 13.8357 2.13645 13.8357H15.8636C17.0416 13.8357 18 12.9153 18 11.784V2.21598C18 1.08468 17.0416 0.164276 15.8636 0.164276ZM15.8636 12.0244H2.13645C1.96328 12.0244 1.81141 11.9121 1.81141 11.784V3.4812L8.01984 8.72268C8.14712 8.83018 8.30898 8.88934 8.47564 8.88934L9.52417 8.88939C9.69074 8.88939 9.85269 8.83018 9.98002 8.72268L16.1887 3.48101V11.7841C16.1886 11.9121 16.0367 12.0244 15.8636 12.0244ZM9.00002 7.09083L2.96155 1.9756H15.0385L9.00002 7.09083Z" fill="#4C505F"/>
</svg>
