<svg width="18" height="18" viewBox="0 0 18 18" fill="none" xmlns="http://www.w3.org/2000/svg">
<path d="M12.3912 7.73438C12.3912 7.34604 12.0765 7.03125 11.6881 7.03125H4.44592C4.05759 7.03125 3.7428 7.34604 3.7428 7.73438C3.7428 8.12271 4.05759 8.4375 4.44592 8.4375H11.6881C12.0765 8.4375 12.3912 8.12271 12.3912 7.73438Z" fill="#4C505F"/>
<path d="M4.44592 9.84375C4.05759 9.84375 3.7428 10.1585 3.7428 10.5469C3.7428 10.9352 4.05759 11.25 4.44592 11.25H8.84435C9.23269 11.25 9.54748 10.9352 9.54748 10.5469C9.54748 10.1585 9.23269 9.84375 8.84435 9.84375H4.44592Z" fill="#4C505F"/>
<path d="M6.09821 16.5938H3.74664C2.97124 16.5938 2.34039 15.9629 2.34039 15.1875V2.8125C2.34039 2.03709 2.97124 1.40625 3.74664 1.40625H12.3912C13.1666 1.40625 13.7974 2.03709 13.7974 2.8125V7.13672C13.7974 7.52505 14.1122 7.83984 14.5006 7.83984C14.8889 7.83984 15.2037 7.52505 15.2037 7.13672V2.8125C15.2037 1.26169 13.942 0 12.3912 0H3.74664C2.19583 0 0.934143 1.26169 0.934143 2.8125V15.1875C0.934143 16.7383 2.19583 18 3.74664 18H6.09821C6.48655 18 6.80133 17.6852 6.80133 17.2969C6.80133 16.9085 6.48655 16.5938 6.09821 16.5938Z" fill="#4C505F"/>
<path d="M16.4492 10.1803C15.6267 9.35781 14.2885 9.35778 13.4666 10.1797L9.60634 14.0314C9.52436 14.1132 9.46389 14.214 9.43021 14.3248L8.58952 17.0925C8.51499 17.3379 8.57992 17.6043 8.75901 17.7879C8.89316 17.9254 9.07541 18 9.26234 18C9.32488 18 9.38802 17.9916 9.45 17.9744L12.288 17.1883C12.4048 17.156 12.5112 17.094 12.597 17.0083L16.4492 13.1634C17.2716 12.341 17.2716 11.0028 16.4492 10.1803ZM11.7344 15.8825L10.3067 16.278L10.7245 14.9023L13.3292 12.3034L14.3237 13.298L11.7344 15.8825ZM15.4553 12.1686L15.3191 12.3046L14.3247 11.3102L14.4605 11.1747C14.7346 10.9005 15.1807 10.9005 15.4548 11.1747C15.729 11.4488 15.729 11.8949 15.4553 12.1686Z" fill="#4C505F"/>
<path d="M11.6881 4.21875H4.44592C4.05759 4.21875 3.7428 4.53354 3.7428 4.92188C3.7428 5.31021 4.05759 5.625 4.44592 5.625H11.6881C12.0765 5.625 12.3912 5.31021 12.3912 4.92188C12.3912 4.53354 12.0765 4.21875 11.6881 4.21875Z" fill="#4C505F"/>
</svg>
